<?xml version="1.0" encoding="UTF-8" standalone="no"?>
<svg width="60px" height="60px" viewBox="0 0 60 60" version="1.1" xmlns="http://www.w3.org/2000/svg" xmlns:xlink="http://www.w3.org/1999/xlink" xmlns:sketch="http://www.bohemiancoding.com/sketch/ns">
    <!-- Generator: Sketch 3.2.2 (9983) - http://www.bohemiancoding.com/sketch -->
    <title>email</title>
    <desc>Created with Sketch.</desc>
    <defs></defs>
    <g id="Page-1" stroke="none" stroke-width="1" fill="none" fill-rule="evenodd" sketch:type="MSPage">
        <path d="M17.3983891,19.0746343 C17.5707197,19.0260123 17.7521885,19 17.9392584,19 L42.0607416,19 C42.1726656,19 42.2824421,19.009266 42.3893571,19.0270565 L42.3893571,19.0270565 L29.859899,27.8002775 L17.3983891,19.0746343 Z M15.9937465,20.5326422 C15.9582247,20.6808974 15.9393939,20.8355566 15.9393939,20.9945615 L15.9393939,38.0054385 C15.9393939,39.0976562 16.8347637,40 17.9392584,40 L42.0607416,40 C43.1568129,40 44.0606061,39.1070044 44.0606061,38.0054385 L44.0606061,20.9945615 C44.0606061,20.7767297 44.0249916,20.5664505 43.9592067,20.3693757 C43.9581586,20.3701159 43.9571087,20.3708542 43.9560569,20.3715906 L30.4866515,29.8029698 C30.2963772,29.9362014 30.0755029,29.9931752 29.859899,29.9797594 C29.6442952,29.9931752 29.4234208,29.9362014 29.2331465,29.8029698 L15.9937465,20.5326422 Z M30,60 C46.5685425,60 60,46.5685425 60,30 C60,13.4314575 46.5685425,0 30,0 C13.4314575,0 0,13.4314575 0,30 C0,46.5685425 13.4314575,60 30,60 Z" id="email" fill="#D5D2D2" sketch:type="MSShapeGroup"></path>
    </g>
</svg>