<?xml version="1.0" encoding="UTF-8" standalone="no"?>
<svg width="32px" height="25px" viewBox="0 0 32 25" version="1.1" xmlns="http://www.w3.org/2000/svg" xmlns:xlink="http://www.w3.org/1999/xlink" xmlns:sketch="http://www.bohemiancoding.com/sketch/ns">
    <!-- Generator: Sketch 3.2.2 (9983) - http://www.bohemiancoding.com/sketch -->
    <title>email 2</title>
    <desc>Created with Sketch.</desc>
    <defs></defs>
    <g id="Page-1" stroke="none" stroke-width="1" fill="none" fill-rule="evenodd" sketch:type="MSPage">
        <path d="M15.859899,10.8002775 L28.8089041,1.73328655 C29.2570418,1.4194971 29.8749197,1.52871327 30.1939057,1.98427253 C30.5106832,2.43667772 30.3944131,3.06465035 29.9560569,3.37159064 L16.4866515,12.8029698 C16.2963772,12.9362014 16.0755029,12.9931752 15.859899,12.9797594 C15.6442952,12.9931752 15.4234208,12.9362014 15.2331465,12.8029698 L1.76374109,3.37159064 C1.32538493,3.06465035 1.20911478,2.43667772 1.5258923,1.98427253 C1.84487834,1.52871327 2.46275619,1.4194971 2.91089396,1.73328655 L15.859899,10.8002775 Z M0,2.99075223 C0,1.33900538 1.33425951,0 2.99610022,0 L29.0038998,0 C30.6586002,0 32,1.34410858 32,2.99075223 L32,22.0092478 C32,23.6609946 30.6657405,25 29.0038998,25 L2.99610022,25 C1.34139976,25 0,23.6558914 0,22.0092478 L0,2.99075223 Z" id="email-2" fill="#18AFCA" sketch:type="MSShapeGroup"></path>
    </g>
</svg>