<?xml version="1.0" encoding="UTF-8" standalone="no"?>
<svg width="353px" height="353px" viewBox="0 0 353 353" version="1.1" xmlns="http://www.w3.org/2000/svg" xmlns:xlink="http://www.w3.org/1999/xlink" xmlns:sketch="http://www.bohemiancoding.com/sketch/ns">
    <!-- Generator: Sketch 3.2.2 (9983) - http://www.bohemiancoding.com/sketch -->
    <title>Logo</title>
    <desc>Created with Sketch.</desc>
    <defs></defs>
    <g id="Page-1" stroke="none" stroke-width="1" fill="none" fill-rule="evenodd" sketch:type="MSPage">
        <path d="M176.5,327 C259.618855,327 327,259.618855 327,176.5 C327,93.3811452 259.618855,26 176.5,26 C93.3811452,26 26,93.3811452 26,176.5 C26,259.618855 93.3811452,327 176.5,327 Z M176.5,353 C273.978258,353 353,273.978258 353,176.5 C353,79.0217417 273.978258,0 176.5,0 C79.0217417,0 0,79.0217417 0,176.5 C0,273.978258 79.0217417,353 176.5,353 Z M176.5,340 C266.798557,340 340,266.798557 340,176.5 C340,86.2014434 266.798557,13 176.5,13 C86.2014434,13 13,86.2014434 13,176.5 C13,266.798557 86.2014434,340 176.5,340 Z M123.097656,222.632813 C122.811196,225.697932 122.095058,228.52668 120.949219,231.119141 C119.80338,233.711602 118.213552,235.953116 116.179688,237.84375 C114.145823,239.734384 111.660822,241.20963 108.724609,242.269531 C105.788397,243.329432 102.401061,243.859375 98.5625,243.859375 C94.7239391,243.859375 91.2506666,243.16472 88.1425781,241.775391 C85.0344897,240.386061 82.3847766,238.409518 80.1933594,235.845703 C78.0019422,233.281888 76.3190163,230.181008 75.1445312,226.542969 C73.9700462,222.90493 73.3828125,218.822939 73.3828125,214.296875 L73.3828125,209.226563 C73.3828125,204.729144 73.984369,200.654315 75.1875,197.001953 C76.390631,193.349591 78.1093638,190.234388 80.34375,187.65625 C82.5781362,185.078112 85.277979,183.087247 88.4433594,181.683594 C91.6087398,180.279941 95.1536262,179.578125 99.078125,179.578125 C102.802102,179.578125 106.09634,180.115229 108.960938,181.189453 C111.825535,182.263677 114.253245,183.753246 116.244141,185.658203 C118.235036,187.563161 119.796218,189.83332 120.927734,192.46875 C122.05925,195.10418 122.782551,197.983057 123.097656,201.105469 L112.269531,201.105469 C112.040363,199.128896 111.646487,197.352872 111.087891,195.777344 C110.529294,194.201815 109.73438,192.862636 108.703125,191.759766 C107.67187,190.656896 106.368497,189.819013 104.792969,189.246094 C103.21744,188.673174 101.312511,188.386719 99.078125,188.386719 C96.614571,188.386719 94.4589936,188.852209 92.6113281,189.783203 C90.7636626,190.714197 89.2239645,192.060538 87.9921875,193.822266 C86.7604105,195.583993 85.8365916,197.753893 85.2207031,200.332031 C84.6048146,202.910169 84.296875,205.846338 84.296875,209.140625 L84.296875,214.296875 C84.296875,217.419286 84.5690077,220.255196 85.1132812,222.804688 C85.6575548,225.354179 86.5025984,227.538402 87.6484375,229.357422 C88.7942766,231.176441 90.2695222,232.587235 92.0742188,233.589844 C93.8789153,234.592453 96.0416541,235.09375 98.5625,235.09375 C100.91147,235.09375 102.895174,234.821617 104.513672,234.277344 C106.13217,233.73307 107.471349,232.930995 108.53125,231.871094 C109.591151,230.811193 110.414711,229.50782 111.001953,227.960938 C111.589196,226.414055 112.011717,224.638031 112.269531,222.632813 L123.097656,222.632813 Z M165.828125,228.433594 L141.59375,228.433594 L136.523438,243 L125.222656,243 L148.855469,180.4375 L158.609375,180.4375 L182.285156,243 L170.941406,243 L165.828125,228.433594 Z M144.644531,219.667969 L162.777344,219.667969 L153.710938,193.714844 L144.644531,219.667969 Z M220.074219,226.886719 C220.074219,225.626296 219.888023,224.501958 219.515625,223.513672 C219.143227,222.525386 218.462896,221.61589 217.474609,220.785156 C216.486323,219.954423 215.12566,219.159509 213.392578,218.400391 C211.659497,217.641272 209.432305,216.846358 206.710938,216.015625 C203.731756,215.1276 200.981783,214.110683 198.460938,212.964844 C195.940092,211.819005 193.770191,210.486987 191.951172,208.96875 C190.132152,207.450513 188.707036,205.703135 187.675781,203.726563 C186.644526,201.74999 186.128906,199.486992 186.128906,196.9375 C186.128906,194.416654 186.66601,192.096365 187.740234,189.976563 C188.814458,187.85676 190.325511,186.023445 192.273438,184.476563 C194.221364,182.92968 196.555976,181.726567 199.277344,180.867188 C201.998712,180.007808 205.006494,179.578125 208.300781,179.578125 C211.824236,179.578125 214.989569,180.086583 217.796875,181.103516 C220.604181,182.120448 222.9746,183.502595 224.908203,185.25 C226.841807,186.997405 228.324214,189.024077 229.355469,191.330078 C230.386724,193.636079 230.902344,196.092435 230.902344,198.699219 L220.074219,198.699219 C220.074219,197.180982 219.837893,195.784512 219.365234,194.509766 C218.892576,193.23502 218.169276,192.132166 217.195312,191.201172 C216.221349,190.270178 214.989591,189.546878 213.5,189.03125 C212.010409,188.515622 210.248708,188.257813 208.214844,188.257813 C206.295563,188.257813 204.634122,188.472654 203.230469,188.902344 C201.826816,189.332033 200.65951,189.93359 199.728516,190.707031 C198.797521,191.480473 198.110028,192.39713 197.666016,193.457031 C197.222003,194.516932 197,195.662754 197,196.894531 C197,199.214855 198.095692,201.14843 200.287109,202.695313 C202.478527,204.242195 205.822894,205.674473 210.320312,206.992188 C213.843768,208.023443 216.894518,209.169265 219.472656,210.429688 C222.050794,211.69011 224.192049,213.115226 225.896484,214.705078 C227.60092,216.29493 228.868485,218.085277 229.699219,220.076172 C230.529952,222.067067 230.945312,224.308581 230.945312,226.800781 C230.945312,229.436211 230.422531,231.80663 229.376953,233.912109 C228.331375,236.017589 226.841807,237.807935 224.908203,239.283203 C222.9746,240.758471 220.632826,241.88997 217.882812,242.677734 C215.132799,243.465499 212.067725,243.859375 208.6875,243.859375 C205.679672,243.859375 202.714858,243.451176 199.792969,242.634766 C196.871079,241.818355 194.250012,240.586597 191.929688,238.939453 C189.609363,237.292309 187.740241,235.236991 186.322266,232.773438 C184.90429,230.309884 184.195312,227.416683 184.195312,224.09375 L195.066406,224.09375 C195.066406,226.070322 195.417314,227.767571 196.119141,229.185547 C196.820967,230.603523 197.780593,231.763667 198.998047,232.666016 C200.215501,233.568364 201.65494,234.227211 203.316406,234.642578 C204.977873,235.057945 206.76822,235.265625 208.6875,235.265625 C212.468769,235.265625 215.311839,234.499357 217.216797,232.966797 C219.121754,231.434237 220.074219,229.407565 220.074219,226.886719 Z M275.050781,215.070312 L249.355469,215.070312 L249.355469,234.320312 L279.390625,234.320312 L279.390625,243 L238.484375,243 L238.484375,180.4375 L279.089844,180.4375 L279.089844,189.203125 L249.355469,189.203125 L249.355469,206.476562 L275.050781,206.476562 L275.050781,215.070312 Z M117.696802,160.852952 L234.696802,160.852952 L234.696802,164.852952 L117.696802,164.852952 L117.696802,160.852952 Z M147.869867,145.232221 L138.977486,145.232221 L129.301968,129.808988 L125.992588,132.162533 L125.992588,145.232221 L118.161229,145.232221 L118.161229,108.627081 L125.992588,108.627081 L125.992588,125.377312 L129.074606,121.070825 L139.078536,108.627081 L147.768818,108.627081 L134.884969,124.826483 L147.869867,145.232221 Z M164.012571,123.699785 L171.717618,108.627081 L180.155275,108.627081 L167.902988,130.985761 L167.902988,145.232221 L160.122154,145.232221 L160.122154,131.236138 L147.869867,108.627081 L156.35805,108.627081 L164.012571,123.699785 Z M184.803566,145.232221 L184.803566,108.627081 L192.634924,108.627081 L192.634924,138.822566 L207.615556,138.822566 L207.615556,145.232221 L184.803566,145.232221 Z M235.303198,145.232221 L214.032217,145.232221 L214.032217,108.627081 L235.303198,108.627081 L235.303198,114.98666 L221.863576,114.98666 L221.863576,123.023767 L234.368487,123.023767 L234.368487,129.383347 L221.863576,129.383347 L221.863576,138.822566 L235.303198,138.822566 L235.303198,145.232221 Z" id="Logo" fill="#18AFCA" sketch:type="MSShapeGroup"></path>
    </g>
</svg>