<?xml version="1.0" encoding="UTF-8" standalone="no"?>
<svg width="100px" height="100px" viewBox="0 0 100 100" version="1.1" xmlns="http://www.w3.org/2000/svg" xmlns:xlink="http://www.w3.org/1999/xlink" xmlns:sketch="http://www.bohemiancoding.com/sketch/ns">
    <!-- Generator: Sketch 3.2.2 (9983) - http://www.bohemiancoding.com/sketch -->
    <title>Logo</title>
    <desc>Created with Sketch.</desc>
    <defs></defs>
    <g id="Page-1" stroke="none" stroke-width="1" fill="none" fill-rule="evenodd" sketch:type="MSPage">
        <path d="M50,92.6345609 C73.5464178,92.6345609 92.6345609,73.5464178 92.6345609,50 C92.6345609,26.4535822 73.5464178,7.36543909 50,7.36543909 C26.4535822,7.36543909 7.36543909,26.4535822 7.36543909,50 C7.36543909,73.5464178 26.4535822,92.6345609 50,92.6345609 Z M50,100 C77.6142375,100 100,77.6142375 100,50 C100,22.3857625 77.6142375,0 50,0 C22.3857625,0 0,22.3857625 0,50 C0,77.6142375 22.3857625,100 50,100 Z M50,96.3172805 C75.5803276,96.3172805 96.3172805,75.5803276 96.3172805,50 C96.3172805,24.4196724 75.5803276,3.68271955 50,3.68271955 C24.4196724,3.68271955 3.68271955,24.4196724 3.68271955,50 C3.68271955,75.5803276 24.4196724,96.3172805 50,96.3172805 Z M34.8718573,63.0687854 C34.7907072,63.9370912 34.5878351,64.7384362 34.2632348,65.4728444 C33.9386345,66.2072526 33.4882583,66.8422424 32.9120928,67.3778329 C32.3359272,67.9134234 31.6319609,68.33134 30.8001726,68.6315953 C29.9683844,68.9318505 29.0087991,69.0819759 27.9213881,69.0819759 C26.8339771,69.0819759 25.8500472,68.8851899 24.9695689,68.4916121 C24.0890906,68.0980342 23.3384636,67.5381071 22.7176655,66.8118139 C22.0968675,66.0855207 21.6201179,65.2070844 21.2874026,64.1764784 C20.9546873,63.1458724 20.7883322,61.9895012 20.7883322,60.70733 L20.7883322,59.2709809 C20.7883322,57.9969247 20.9587448,56.8425822 21.2995751,55.8079187 C21.6404054,54.7732553 22.1272985,53.8907614 22.7602691,53.1604108 C23.3932397,52.4300601 24.1580677,51.8660755 25.054776,51.4684402 C25.9514844,51.0708048 26.9557015,50.8719901 28.0674575,50.8719901 C29.1224085,50.8719901 30.0556204,51.0241442 30.8671211,51.328457 C31.6786219,51.6327698 32.3663584,52.0547438 32.9303515,52.5943918 C33.4943445,53.1340398 33.9366058,53.7771445 34.2571485,54.5237252 C34.5776913,55.2703059 34.7825922,56.0858519 34.8718573,56.9703877 L31.8043998,56.9703877 C31.7394797,56.4104522 31.6279,55.9073293 31.4696574,55.4610039 C31.3114148,55.0146785 31.0862267,54.6353076 30.7940864,54.3228798 C30.5019461,54.010452 30.1327188,53.7730916 29.6863934,53.6107914 C29.240068,53.4484913 28.7004281,53.3673424 28.0674575,53.3673424 C27.3695669,53.3673424 26.7589217,53.4992093 26.2355037,53.7629471 C25.7120857,54.0266848 25.2759106,54.4080844 24.9269653,54.9071574 C24.57802,55.4062304 24.3163149,56.020933 24.1418422,56.7512836 C23.9673696,57.4816343 23.8801346,58.3134101 23.8801346,59.246636 L23.8801346,60.70733 C23.8801346,61.5918658 23.957226,62.3952395 24.1114111,63.1174752 C24.2655963,63.8397109 24.5049854,64.4584709 24.8295857,64.9737739 C25.154186,65.4890769 25.5721026,65.888735 26.0833481,66.1727603 C26.5945936,66.4567855 27.2072674,66.598796 27.9213881,66.598796 C28.5868187,66.598796 29.1487746,66.5217046 29.6072725,66.3675195 C30.0657704,66.2133343 30.4451413,65.9861175 30.7453966,65.6858623 C31.0456519,65.385607 31.2789548,65.0163797 31.4453125,64.5781693 C31.6116702,64.1399589 31.7313647,63.6368359 31.8043998,63.0687854 L34.8718573,63.0687854 Z M46.9768059,64.7120662 L40.1115439,64.7120662 L38.6751948,68.8385269 L35.4738403,68.8385269 L42.168688,51.1154391 L44.9318343,51.1154391 L51.6388545,68.8385269 L48.4253275,68.8385269 L46.9768059,64.7120662 Z M40.9757879,62.2288863 L46.112562,62.2288863 L43.5441749,54.8767263 L40.9757879,62.2288863 Z M62.3439713,64.273858 C62.3439713,63.9167977 62.2912246,63.5982884 62.1857295,63.3183206 C62.0802344,63.0383529 61.8875058,62.7807053 61.6075381,62.54537 C61.3275703,62.3100348 60.9421132,62.0848467 60.4511553,61.869799 C59.9601973,61.6547513 59.3292649,61.4295633 58.5583392,61.194228 C57.7143785,60.9426628 56.9353494,60.6545844 56.2212288,60.3299841 C55.5071081,60.0053838 54.8924055,59.6280416 54.3771025,59.1979462 C53.8617995,58.7678508 53.458084,58.2728427 53.1659437,57.7129072 C52.8738034,57.1529717 52.7277355,56.5118957 52.7277355,55.7896601 C52.7277355,55.0755394 52.8798896,54.4182336 53.1842024,53.8177231 C53.4885152,53.2172125 53.9165754,52.6978598 54.4683959,52.2596494 C55.0202164,51.821439 55.6815796,51.4806138 56.4525053,51.2371636 C57.223431,50.9937134 58.075494,50.8719901 59.0087199,50.8719901 C60.0068658,50.8719901 60.9035607,51.0160293 61.6988314,51.3041121 C62.4941022,51.5921948 63.165609,51.9837381 63.713372,52.4787535 C64.261135,52.973769 64.6810803,53.5478972 64.9732206,54.2011553 C65.2653609,54.8544134 65.4114288,55.5502648 65.4114288,56.2887305 L62.3439713,56.2887305 C62.3439713,55.8586351 62.2770235,55.4630344 62.1431259,55.1019166 C62.0092283,54.7407988 61.8043274,54.4283757 61.5284171,54.1646379 C61.2525069,53.9009002 60.9035668,53.6959993 60.4815864,53.5499292 C60.059606,53.403859 59.5605405,53.3308251 58.984375,53.3308251 C58.4406695,53.3308251 57.9700061,53.3916867 57.5723708,53.5134118 C57.1747354,53.6351369 56.8440538,53.8055495 56.580316,54.0246547 C56.3165783,54.2437599 56.121821,54.5034363 55.9960384,54.8036916 C55.8702558,55.1039469 55.8073654,55.4285423 55.8073654,55.7774876 C55.8073654,56.4348032 56.1177598,56.982558 56.7385579,57.4207684 C57.359356,57.8589788 58.3067689,58.2647231 59.5808251,58.6380135 C60.578971,58.9301537 61.4432063,59.2547492 62.173557,59.6118095 C62.9039077,59.9688698 63.5104954,60.3725854 63.9933383,60.8229683 C64.4761813,61.2733512 64.835265,61.7805316 65.0706002,62.3445246 C65.3059354,62.9085176 65.4236013,63.5435074 65.4236013,64.2495131 C65.4236013,64.9960938 65.2755046,65.6676006 64.9793068,66.2640536 C64.6831091,66.8605067 64.261135,67.3676871 63.713372,67.78561 C63.165609,68.2035328 62.5022171,68.5240708 61.7231763,68.7472335 C60.9441356,68.9703962 60.0758428,69.0819759 59.118272,69.0819759 C58.2661962,69.0819759 57.4263055,68.9663388 56.5985747,68.7350611 C55.7708439,68.5037834 55.0283319,68.1548433 54.3710163,67.6882303 C53.7137007,67.2216174 53.1842044,66.6393744 52.7825115,65.9414837 C52.3808186,65.2435931 52.1799752,64.4239896 52.1799752,63.4826487 L55.2596052,63.4826487 C55.2596052,64.0425842 55.3590125,64.5233912 55.5578302,64.9250841 C55.7566479,65.326777 56.0284966,65.6554298 56.3733844,65.9110526 C56.7182722,66.1666753 57.1260452,66.3533177 57.5967157,66.4709853 C58.0673861,66.5886529 58.5745665,66.6474858 59.118272,66.6474858 C60.1894529,66.6474858 60.9948554,66.4304126 61.5345034,65.9962597 C62.0741514,65.5621068 62.3439713,64.9879787 62.3439713,64.273858 Z M77.9180683,60.9264341 L70.638943,60.9264341 L70.638943,66.3796919 L79.1474858,66.3796919 L79.1474858,68.8385269 L67.559313,68.8385269 L67.559313,51.1154391 L79.0622787,51.1154391 L79.0622787,53.598619 L70.638943,53.598619 L70.638943,58.4919441 L77.9180683,58.4919441 L77.9180683,60.9264341 Z M33.3418703,45.5674084 L66.4863462,45.5674084 L66.4863462,46.7005529 L33.3418703,46.7005529 L33.3418703,45.5674084 Z M41.8894808,41.1422723 L39.3703926,41.1422723 L36.6294528,36.7730845 L35.6919512,37.4398112 L35.6919512,41.1422723 L33.473436,41.1422723 L33.473436,30.7725441 L35.6919512,30.7725441 L35.6919512,35.5176522 L36.5650443,34.2976842 L39.3990186,30.7725441 L41.8608548,30.7725441 L38.2110395,35.3616098 L41.8894808,41.1422723 Z M46.4624848,35.0424321 L48.6452175,30.7725441 L51.0354887,30.7725441 L47.5645859,37.1064478 L47.5645859,41.1422723 L45.3603837,41.1422723 L45.3603837,37.1773762 L41.8894808,30.7725441 L44.2940651,30.7725441 L46.4624848,35.0424321 Z M52.3522848,41.1422723 L52.3522848,30.7725441 L54.5708001,30.7725441 L54.5708001,39.3265059 L58.814605,39.3265059 L58.814605,41.1422723 L52.3522848,41.1422723 Z M66.6581297,41.1422723 L60.6323562,41.1422723 L60.6323562,30.7725441 L66.6581297,30.7725441 L66.6581297,32.5741247 L62.8508714,32.5741247 L62.8508714,34.8509255 L66.3933392,34.8509255 L66.3933392,36.6525062 L62.8508714,36.6525062 L62.8508714,39.3265059 L66.6581297,39.3265059 L66.6581297,41.1422723 Z" id="Logo" fill="#FFFFFF" sketch:type="MSShapeGroup"></path>
    </g>
</svg>