<?xml version="1.0" encoding="UTF-8" standalone="no"?>
<svg width="29px" height="24px" viewBox="0 0 29 24" version="1.1" xmlns="http://www.w3.org/2000/svg" xmlns:xlink="http://www.w3.org/1999/xlink" xmlns:sketch="http://www.bohemiancoding.com/sketch/ns">
    <!-- Generator: Sketch 3.2.2 (9983) - http://www.bohemiancoding.com/sketch -->
    <title>twitter 2</title>
    <desc>Created with Sketch.</desc>
    <defs></defs>
    <g id="Page-1" stroke="none" stroke-width="1" fill="none" fill-rule="evenodd" sketch:type="MSPage">
        <path d="M18.167,0.283 C15.548,1.236 13.893,3.694 14.081,6.384 L14.144,7.422 L13.096,7.295 C9.283,6.808 5.951,5.156 3.122,2.38 L1.739,1.003 L1.383,2.02 C0.629,4.287 1.111,6.681 2.682,8.291 C3.52,9.181 3.331,9.308 1.886,8.778 C1.383,8.609 0.943,8.482 0.901,8.545 C0.755,8.694 1.257,10.621 1.655,11.384 C2.2,12.444 3.31,13.481 4.526,14.096 L5.553,14.583 L4.338,14.604 C3.165,14.604 3.123,14.625 3.249,15.071 C3.668,16.448 5.323,17.91 7.167,18.546 L8.466,18.99 L7.335,19.668 C5.659,20.644 3.689,21.194 1.719,21.235 C0.775,21.256 0,21.341 0,21.405 C0,21.616 2.557,22.802 4.044,23.269 C8.507,24.646 13.809,24.052 17.79,21.701 C20.619,20.027 23.447,16.701 24.768,13.48 C25.481,11.765 26.193,8.629 26.193,7.126 C26.193,6.151 26.256,6.024 27.429,4.859 C28.121,4.181 28.77,3.44 28.896,3.228 C29.106,2.825 29.084,2.825 28.016,3.185 C26.235,3.821 25.983,3.736 26.864,2.783 C27.513,2.105 28.289,0.876 28.289,0.516 C28.289,0.453 27.975,0.558 27.618,0.749 C27.241,0.961 26.403,1.279 25.774,1.469 L24.643,1.83 L23.616,1.13 C23.05,0.749 22.255,0.325 21.835,0.198 C20.766,-0.098 19.131,-0.056 18.167,0.283 L18.167,0.283 Z" id="twitter-2" fill="#18AFCA" sketch:type="MSShapeGroup"></path>
    </g>
</svg>